<svg width="1024" height="1024" viewBox="0 0 1024 1024" xmlns="http://www.w3.org/2000/svg">
  <rect width="1024" height="1024" rx="220" fill="#ffffff"/>
  <rect x="24" y="24" width="976" height="976" rx="196" fill="none" stroke="#e4e4e7" stroke-width="24"/>
  <g transform="translate(178 186) scale(28)">
    <path d="M9.974 4.062c2.269-.689 4.771-.231 6.574 1.216 1.433 1.145 2.262 2.777 2.328 4.486l.003.219.094.004c2.378.11 4.283 2.027 4.394 4.414l.004.218c0 2.488-1.949 4.519-4.399 4.633l-.217.005H6.477l-.23-.008C3.208 19.135.751 16.769.634 13.808l-.005-.223c0-2.84 2.15-5.179 4.945-5.6l.118-.016.073-.187c.685-1.675 2.125-3.004 3.958-3.637l.252-.083h-.001Z" fill="url(#cloud-fill)"/>
    <path d="m.156 13.767-.001-.019-.005-.205v-.026c0-3.044 2.204-5.581 5.143-6.192.789-1.718 2.309-3.082 4.227-3.743-.121.041.018-.007.018-.007l.231-.076.024-.007c2.464-.749 5.179-.246 7.138 1.326 1.439 1.15 2.321 2.745 2.528 4.443 2.416.425 4.269 2.487 4.386 5.006l.001.029.004.2-.034.035-.009.029.043-.043c0 2.864-2.245 5.2-5.066 5.331l-.039.001-.21.005H6.647c.097 0 .097-.015 0 0l-.222-.008-.032-.001C3.004 19.72.276 17.069.146 13.768Zm9.088-9.164c-.161.076-.094.044-.232.109-1.411.656-2.482 1.819-3.044 3.191l-.07.181s-.57.103-.943.204C2.645 8.912 1 11.058 1 13.517l.005.216c.01.259.039.514.085.762 0 0 .008.083.016.082.495 2.458 2.684 4.32 5.329 4.419l.016.001h.002l.204.007h.013c.324.047 11.865 0 11.865 0l.21-.005C21.115 18.889 23 16.924 23 14.517l-.004-.211c-.107-2.309-1.95-4.163-4.25-4.27l-.091-.003-.003-.212c-.064-1.654-.866-3.232-2.252-4.34-1.745-1.4-4.164-1.843-6.359-1.176l-.244.08c-.189.065-.375.134-.553.218Z" fill="url(#cloud-stroke)"/>
  </g>
  <rect x="269" y="696" width="486" height="152" rx="76" fill="#fff7ed" stroke="#fdba74" stroke-width="14"/>
  <text x="512" y="797" text-anchor="middle" font-family="Inter, ui-sans-serif, system-ui, -apple-system, BlinkMacSystemFont, sans-serif" font-size="78" font-weight="800" letter-spacing="8" fill="#ea580c">DEMO</text>
  <defs>
    <linearGradient id="cloud-fill" x1="12.4" y1="4.3" x2="12.7" y2="19.3" gradientUnits="userSpaceOnUse">
      <stop stop-color="#f0f6ff"/>
      <stop offset="1" stop-color="#5a9cff"/>
    </linearGradient>
    <linearGradient id="cloud-stroke" x1="12" y1="1.7" x2="12" y2="19.9" gradientUnits="userSpaceOnUse">
      <stop stop-color="#a6d1ff"/>
      <stop offset="1" stop-color="#1f8bff"/>
    </linearGradient>
  </defs>
</svg>
