<?xml version="1.0" encoding="UTF-8" standalone="no"?><!DOCTYPE svg PUBLIC "-//W3C//DTD SVG 1.1//EN" "http://www.w3.org/Graphics/SVG/1.1/DTD/svg11.dtd"><svg width="100%" height="100%" viewBox="0 0 24 24" version="1.1" xmlns="http://www.w3.org/2000/svg" xmlns:xlink="http://www.w3.org/1999/xlink" xml:space="preserve" xmlns:serif="http://www.serif.com/" style="fill-rule:evenodd;clip-rule:evenodd;stroke-linejoin:round;stroke-miterlimit:2;"><rect id="ArtBoard1" x="0" y="0" width="24" height="24" style="fill:none;"/><g id="ArtBoard11" serif:id="ArtBoard1"><path d="M9.974,4.062c2.269,-0.689 4.771,-0.231 6.574,1.216c1.433,1.145 2.262,2.777 2.328,4.486l0.003,0.219l0.094,0.004c2.378,0.11 4.283,2.027 4.394,4.414l0.004,0.218c-0,2.488 -1.949,4.519 -4.399,4.633l-0.217,0.005l-12.278,-0l-0.23,-0.008c-3.039,-0.114 -5.496,-2.48 -5.613,-5.441l-0.005,-0.223c0,-2.84 2.15,-5.179 4.945,-5.6l0.118,-0.016l0.073,-0.187c0.685,-1.675 2.125,-3.004 3.958,-3.637l0.252,-0.083l-0.001,0Z" style="fill:url(#_Linear1);fill-rule:nonzero;"/><path d="M0.156,13.767l-0.001,-0.019l-0.005,-0.205l-0,-0.026c-0,-3.044 2.204,-5.581 5.143,-6.192c0.789,-1.718 2.309,-3.082 4.227,-3.743c-0.121,0.041 0.018,-0.007 0.018,-0.007l0.231,-0.076l0.024,-0.007c2.464,-0.749 5.179,-0.246 7.138,1.326c1.439,1.15 2.321,2.745 2.528,4.443c2.416,0.425 4.269,2.487 4.386,5.006l0.001,0.029l0.004,0.2l-0.034,0.035l-0.009,0.029l0.043,-0.043c0,2.864 -2.245,5.2 -5.066,5.331l-0.039,0.001l-0.21,0.005l-11.878,0c0.097,0 0.097,-0.015 0,0l-0.222,-0.008l-0.032,-0.001c-3.389,-0.126 -6.117,-2.777 -6.247,-6.078Zm9.088,-9.164c-0.161,0.076 -0.094,0.044 -0.232,0.109c-1.411,0.656 -2.482,1.819 -3.044,3.191l-0.07,0.181c0,0 -0.57,0.103 -0.943,0.204c-2.31,0.624 -3.955,2.77 -3.955,5.229l0.005,0.216c0.01,0.259 0.039,0.514 0.085,0.762c0,0 0.008,0.083 0.016,0.082c0.495,2.458 2.684,4.32 5.329,4.419l0.016,0.001l0.002,0l0.204,0.007l0.013,-0c0.324,0.047 11.865,-0 11.865,-0l0.21,-0.005c2.37,-0.11 4.255,-2.075 4.255,-4.482l-0.004,-0.211c-0.107,-2.309 -1.95,-4.163 -4.25,-4.27l-0.091,-0.003l-0.003,-0.212c-0.064,-1.654 -0.866,-3.232 -2.252,-4.34c-1.745,-1.4 -4.164,-1.843 -6.359,-1.176l-0.244,0.08c-0.189,0.065 -0.375,0.134 -0.553,0.218Z" style="fill:url(#_Linear2);"/></g><defs><linearGradient id="_Linear1" x1="0" y1="0" x2="1" y2="0" gradientUnits="userSpaceOnUse" gradientTransform="matrix(0.28477,14.9308,-14.9308,0.28477,12.4271,4.32609)"><stop offset="0" style="stop-color:#f0f6ff;stop-opacity:1"/><stop offset="1" style="stop-color:#5a9cff;stop-opacity:1"/></linearGradient><linearGradient id="_Linear2" x1="0" y1="0" x2="1" y2="0" gradientUnits="userSpaceOnUse" gradientTransform="matrix(1.11193e-15,18.1593,-18.1593,1.11193e-15,12,1.69474)"><stop offset="0" style="stop-color:#a6d1ff;stop-opacity:1"/><stop offset="1" style="stop-color:#1f8bff;stop-opacity:1"/></linearGradient></defs></svg>